<mxfile modified="2023-08-07T13:40:37.190Z" host="app.diagrams.net" agent="Mozilla/5.0 (Windows NT 10.0; Win64; x64) AppleWebKit/537.36 (KHTML, like Gecko) Chrome/115.0.0.0 Safari/537.36" etag="p4kmnDY59ZgDUhhLYt4Z" version="21.6.6" type="device">
  <diagram id="Ht1M8jgEwFfnCIfOTk4-" name="Page-1">
    <mxGraphModel dx="2035" dy="1849" grid="1" gridSize="10" guides="1" tooltips="1" connect="1" arrows="1" fold="1" page="1" pageScale="1" pageWidth="1169" pageHeight="827" background="#ffffff" math="0" shadow="0">
      <root>
        <mxCell id="0" />
        <mxCell id="1" parent="0" />
        <mxCell id="HzsjGiB_58rbds9Bvkie-2" value="AWS Cloud" style="sketch=0;outlineConnect=0;html=1;whiteSpace=wrap;fontSize=12;fontStyle=0;shape=mxgraph.aws4.group;grIcon=mxgraph.aws4.group_aws_cloud;verticalAlign=top;align=left;spacingLeft=30;dashed=0;" parent="1" vertex="1">
          <mxGeometry x="470" y="-650" width="640" height="640" as="geometry" />
        </mxCell>
        <mxCell id="HzsjGiB_58rbds9Bvkie-4" value="VPC" style="sketch=0;outlineConnect=0;gradientColor=none;html=1;whiteSpace=wrap;fontSize=12;fontStyle=0;shape=mxgraph.aws4.group;grIcon=mxgraph.aws4.group_vpc;strokeColor=#879196;fillColor=none;verticalAlign=top;align=left;spacingLeft=30;fontColor=#879196;dashed=0;" parent="1" vertex="1">
          <mxGeometry x="490" y="-600" width="600" height="420" as="geometry" />
        </mxCell>
        <mxCell id="HzsjGiB_58rbds9Bvkie-34" value="" style="edgeStyle=orthogonalEdgeStyle;rounded=0;orthogonalLoop=1;jettySize=auto;html=1;" parent="1" source="HzsjGiB_58rbds9Bvkie-5" edge="1">
          <mxGeometry relative="1" as="geometry">
            <mxPoint x="810" y="-600" as="targetPoint" />
          </mxGeometry>
        </mxCell>
        <mxCell id="HzsjGiB_58rbds9Bvkie-5" value="mumbai region" style="rounded=1;whiteSpace=wrap;html=1;fillColor=#a20025;fontColor=#ffffff;strokeColor=#6F0000;" parent="1" vertex="1">
          <mxGeometry x="750" y="-640" width="120" height="20" as="geometry" />
        </mxCell>
        <mxCell id="HzsjGiB_58rbds9Bvkie-6" value="Subnet" style="sketch=0;outlineConnect=0;html=1;whiteSpace=wrap;fontSize=12;fontStyle=0;shape=mxgraph.aws4.group;grIcon=mxgraph.aws4.group_subnet;strokeColor=#6c8ebf;fillColor=#dae8fc;verticalAlign=top;align=left;spacingLeft=30;dashed=0;" parent="1" vertex="1">
          <mxGeometry x="540" y="-550" width="110" height="60" as="geometry" />
        </mxCell>
        <mxCell id="HzsjGiB_58rbds9Bvkie-35" style="edgeStyle=orthogonalEdgeStyle;rounded=0;orthogonalLoop=1;jettySize=auto;html=1;entryX=0.5;entryY=0;entryDx=0;entryDy=0;" parent="1" source="HzsjGiB_58rbds9Bvkie-7" target="HzsjGiB_58rbds9Bvkie-31" edge="1">
          <mxGeometry relative="1" as="geometry">
            <Array as="points">
              <mxPoint x="775" y="-380" />
              <mxPoint x="780" y="-380" />
            </Array>
          </mxGeometry>
        </mxCell>
        <mxCell id="HzsjGiB_58rbds9Bvkie-7" value="Subnet" style="sketch=0;outlineConnect=0;html=1;whiteSpace=wrap;fontSize=12;fontStyle=0;shape=mxgraph.aws4.group;grIcon=mxgraph.aws4.group_subnet;strokeColor=#6c8ebf;fillColor=#dae8fc;verticalAlign=top;align=left;spacingLeft=30;dashed=0;" parent="1" vertex="1">
          <mxGeometry x="710" y="-550" width="130" height="60" as="geometry" />
        </mxCell>
        <mxCell id="HzsjGiB_58rbds9Bvkie-8" value="Subnet" style="sketch=0;outlineConnect=0;html=1;whiteSpace=wrap;fontSize=12;fontStyle=0;shape=mxgraph.aws4.group;grIcon=mxgraph.aws4.group_subnet;strokeColor=#6c8ebf;fillColor=#dae8fc;verticalAlign=top;align=left;spacingLeft=30;dashed=0;" parent="1" vertex="1">
          <mxGeometry x="910" y="-550" width="130" height="60" as="geometry" />
        </mxCell>
        <mxCell id="HzsjGiB_58rbds9Bvkie-10" value="vm" style="ellipse;whiteSpace=wrap;html=1;" parent="1" vertex="1">
          <mxGeometry x="630" y="-580" width="50" height="50" as="geometry" />
        </mxCell>
        <mxCell id="HzsjGiB_58rbds9Bvkie-11" value="vm" style="ellipse;whiteSpace=wrap;html=1;" parent="1" vertex="1">
          <mxGeometry x="800" y="-580" width="50" height="50" as="geometry" />
        </mxCell>
        <mxCell id="HzsjGiB_58rbds9Bvkie-12" value="vm" style="ellipse;whiteSpace=wrap;html=1;" parent="1" vertex="1">
          <mxGeometry x="1000" y="-580" width="50" height="50" as="geometry" />
        </mxCell>
        <mxCell id="HzsjGiB_58rbds9Bvkie-25" value="" style="endArrow=none;html=1;rounded=0;exitX=0.183;exitY=0.5;exitDx=0;exitDy=0;exitPerimeter=0;entryX=0.783;entryY=0.5;entryDx=0;entryDy=0;entryPerimeter=0;elbow=vertical;" parent="1" source="HzsjGiB_58rbds9Bvkie-4" target="HzsjGiB_58rbds9Bvkie-4" edge="1">
          <mxGeometry width="50" height="50" relative="1" as="geometry">
            <mxPoint x="780" y="-440" as="sourcePoint" />
            <mxPoint x="830" y="-490" as="targetPoint" />
            <Array as="points" />
          </mxGeometry>
        </mxCell>
        <mxCell id="HzsjGiB_58rbds9Bvkie-27" value="" style="endArrow=none;html=1;rounded=0;" parent="1" edge="1">
          <mxGeometry width="50" height="50" relative="1" as="geometry">
            <mxPoint x="960" y="-390" as="sourcePoint" />
            <mxPoint x="961.5384615384617" y="-490" as="targetPoint" />
          </mxGeometry>
        </mxCell>
        <mxCell id="HzsjGiB_58rbds9Bvkie-28" value="" style="endArrow=none;html=1;rounded=0;" parent="1" target="HzsjGiB_58rbds9Bvkie-6" edge="1">
          <mxGeometry width="50" height="50" relative="1" as="geometry">
            <mxPoint x="700" y="-390" as="sourcePoint" />
            <mxPoint x="785" y="-480" as="targetPoint" />
            <Array as="points">
              <mxPoint x="600" y="-390" />
            </Array>
          </mxGeometry>
        </mxCell>
        <mxCell id="HzsjGiB_58rbds9Bvkie-31" value="subnet association" style="rounded=1;whiteSpace=wrap;html=1;fillColor=#f8cecc;strokeColor=#b85450;" parent="1" vertex="1">
          <mxGeometry x="720" y="-370" width="120" height="30" as="geometry" />
        </mxCell>
        <mxCell id="tmZgcdOW5LFmvOeyZ5_9-2" style="edgeStyle=orthogonalEdgeStyle;rounded=0;orthogonalLoop=1;jettySize=auto;html=1;entryX=0.5;entryY=1;entryDx=0;entryDy=0;" edge="1" parent="1" source="tmZgcdOW5LFmvOeyZ5_9-1" target="HzsjGiB_58rbds9Bvkie-31">
          <mxGeometry relative="1" as="geometry" />
        </mxCell>
        <mxCell id="tmZgcdOW5LFmvOeyZ5_9-1" value="route table" style="rounded=1;whiteSpace=wrap;html=1;fillColor=#d80073;fontColor=#ffffff;strokeColor=#A50040;" vertex="1" parent="1">
          <mxGeometry x="730" y="-270" width="100" height="30" as="geometry" />
        </mxCell>
        <mxCell id="tmZgcdOW5LFmvOeyZ5_9-4" value="" style="edgeStyle=orthogonalEdgeStyle;rounded=0;orthogonalLoop=1;jettySize=auto;html=1;" edge="1" parent="1" source="tmZgcdOW5LFmvOeyZ5_9-3" target="tmZgcdOW5LFmvOeyZ5_9-1">
          <mxGeometry relative="1" as="geometry" />
        </mxCell>
        <mxCell id="tmZgcdOW5LFmvOeyZ5_9-3" value="igw" style="ellipse;whiteSpace=wrap;html=1;fillColor=#0050ef;fontColor=#ffffff;strokeColor=#001DBC;" vertex="1" parent="1">
          <mxGeometry x="740" y="-210" width="80" height="50" as="geometry" />
        </mxCell>
        <mxCell id="tmZgcdOW5LFmvOeyZ5_9-7" style="edgeStyle=orthogonalEdgeStyle;rounded=0;orthogonalLoop=1;jettySize=auto;html=1;entryX=1;entryY=0.5;entryDx=0;entryDy=0;" edge="1" parent="1" source="tmZgcdOW5LFmvOeyZ5_9-5" target="tmZgcdOW5LFmvOeyZ5_9-6">
          <mxGeometry relative="1" as="geometry" />
        </mxCell>
        <mxCell id="tmZgcdOW5LFmvOeyZ5_9-5" value="Actor" style="shape=umlActor;verticalLabelPosition=bottom;verticalAlign=top;html=1;outlineConnect=0;" vertex="1" parent="1">
          <mxGeometry x="1240" y="40" width="40" height="60" as="geometry" />
        </mxCell>
        <mxCell id="tmZgcdOW5LFmvOeyZ5_9-8" style="edgeStyle=orthogonalEdgeStyle;rounded=0;orthogonalLoop=1;jettySize=auto;html=1;" edge="1" parent="1">
          <mxGeometry relative="1" as="geometry">
            <mxPoint x="785" y="40" as="sourcePoint" />
            <mxPoint x="775" y="-160" as="targetPoint" />
            <Array as="points">
              <mxPoint x="785" y="41" />
              <mxPoint x="775" y="41" />
              <mxPoint x="775" y="-59" />
              <mxPoint x="776" y="-59" />
            </Array>
          </mxGeometry>
        </mxCell>
        <mxCell id="tmZgcdOW5LFmvOeyZ5_9-6" value="router" style="whiteSpace=wrap;html=1;fillColor=#60a917;fontColor=#ffffff;strokeColor=#2D7600;" vertex="1" parent="1">
          <mxGeometry x="730" y="40" width="120" height="60" as="geometry" />
        </mxCell>
        <mxCell id="tmZgcdOW5LFmvOeyZ5_9-9" value="public traffic" style="text;html=1;align=center;verticalAlign=middle;resizable=0;points=[];autosize=1;strokeColor=none;fillColor=none;" vertex="1" parent="1">
          <mxGeometry x="935" y="38" width="90" height="30" as="geometry" />
        </mxCell>
        <mxCell id="tmZgcdOW5LFmvOeyZ5_9-10" value="private network" style="whiteSpace=wrap;html=1;fillColor=#ffcc99;strokeColor=#36393d;" vertex="1" parent="1">
          <mxGeometry x="1120" y="38" width="100" height="20" as="geometry" />
        </mxCell>
        <mxCell id="tmZgcdOW5LFmvOeyZ5_9-11" value="banglore" style="text;html=1;align=center;verticalAlign=middle;resizable=0;points=[];autosize=1;strokeColor=none;fillColor=none;" vertex="1" parent="1">
          <mxGeometry x="1185" y="-2" width="70" height="30" as="geometry" />
        </mxCell>
      </root>
    </mxGraphModel>
  </diagram>
</mxfile>
